# xmcd
#
# Track frame offsets:
#	187
#	11615
#	24075
#	35752
#	46287
#	56282
#	72270
#	86505
#	96452
#	109487
#	122527
#	135605
#	146002
#	159292
#	172142
#	185387
#	200387
#	215070
#	227527
#	240050
#
# Disc length: 3331 seconds
#
# Revision: 0
# Processed by: cddbd v1.4PL0 Copyright (c) Steve Scherf et al.
# Submitted via: dBpowerAMP V4.0
#
DISCID=0d0d0114
DTITLE=Eddy Arnold - Bouquet of Roses
DYEAR=1900
DGENRE=Country
TTITLE0=Have I Told You Lately That I Love You
TTITLE1=The Way You Look Tonight
TTITLE2=Kentucky Waltz
TTITLE3=I'm Throwing Rice (At The Girl I Love)
TTITLE4=Gonna Find Me a Bluebird
TTITLE5=Yesterday, When I was Young
TTITLE6=I'm Thinking Tonight Of My Blue Eyes
TTITLE7=The Days Gone By
TTITLE8=I Can't Help It (If I'm Still In Love With You)
TTITLE9=Loving Her Was Easier (Than Anything I'll Ever Do Again)
TTITLE10=Anytime
TTITLE11=Kisses Sweeter Than Wine
TTITLE12=Molly
TTITLE13=Sweet Bird of Youth
TTITLE14=Just For Old Times Sake
TTITLE15=The World I Used To Know
TTITLE16=Many Tears Ago
TTITLE17=In Time
TTITLE18=Yesterday's Memories
TTITLE19=I'd Trade All Of My Tomorrow's (For Just One Yesterday)
EXTD=Eddy Arnold - Bouquet of Roses
EXTT0=
EXTT1=
EXTT2=
EXTT3=
EXTT4=
EXTT5=
EXTT6=
EXTT7=
EXTT8=
EXTT9=
EXTT10=
EXTT11=
EXTT12=
EXTT13=
EXTT14=
EXTT15=
EXTT16=
EXTT17=
EXTT18=
EXTT19=
PLAYORDER=
